<svg id="Layer_1" data-name="Layer 1" xmlns="http://www.w3.org/2000/svg" viewBox="0 0 688.54 393.53"><defs><style>.cls-1,.cls-4{fill:none;stroke-linecap:round;stroke-linejoin:round;}.cls-1{stroke:#5a526a;stroke-width:15.37px;}.cls-2{fill:#f7fbff;}.cls-3{fill:#231f20;}.cls-4{stroke:#231f20;stroke-width:14.64px;}.cls-5{fill:#5a526a;}.cls-6{fill:#e7e8ef;}.cls-7{fill:#649dd2;}.cls-8{fill:#5a536a;}</style></defs><title>analyze</title><line class="cls-1" x1="313.53" y1="160.89" x2="591.62" y2="160.89"/><line class="cls-1" x1="313.53" y1="203.74" x2="591.62" y2="203.74"/><line class="cls-1" x1="311.04" y1="246.52" x2="589.13" y2="246.52"/><line class="cls-1" x1="318.43" y1="289.31" x2="596.52" y2="289.31"/><line class="cls-1" x1="309.91" y1="329.6" x2="486.56" y2="329.6"/><path class="cls-2" d="M248,585.23c-10.4,0-20.39-5-28.12-14.06-12.08-14.18-17.44-36.36-14-57.9l38.9-242.46a72.64,72.64,0,0,1,72-61.39H553.56A73,73,0,0,1,625.26,269l45.25,242.31c4.09,21.89-1,44.65-13.24,59.4-7.79,9.38-17.92,14.54-28.52,14.54Z" transform="translate(7.79 -200.56)"/><path class="cls-3" d="M553.56,218.28a64.09,64.09,0,0,1,63,52.32L661.8,512.92c6,31.95-10.45,63.46-33.05,63.46H248c-22.1,0-38.42-30.18-33.36-61.7l38.9-242.46a64.09,64.09,0,0,1,63.28-53.93H553.56m0-17.72H316.84a81.8,81.8,0,0,0-80.77,68.84l-38.9,242.46c-3.86,24,2.27,49,16,65C222.6,588,235,594.09,248,594.09H628.75c13.29,0,25.84-6.3,35.34-17.74,13.89-16.73,19.69-42.28,15.13-66.69L634,267.35a81.84,81.84,0,0,0-80.41-66.79Z" transform="translate(7.79 -200.56)"/><line class="cls-4" x1="309.12" y1="172.07" x2="573.9" y2="172.07"/><line class="cls-4" x1="309.12" y1="131.27" x2="573.9" y2="131.27"/><line class="cls-4" x1="309.12" y1="90.47" x2="573.9" y2="90.47"/><line class="cls-4" x1="309.12" y1="49.68" x2="573.9" y2="49.68"/><line class="cls-4" x1="309.12" y1="212.87" x2="573.9" y2="212.87"/><line class="cls-4" x1="306.75" y1="253.6" x2="571.53" y2="253.6"/><line class="cls-4" x1="313.79" y1="294.34" x2="578.57" y2="294.34"/><line class="cls-4" x1="305.68" y1="332.71" x2="473.87" y2="332.71"/><path class="cls-2" d="M214.71,466.42a6.79,6.79,0,0,1-6.37-4.44l-13.11-35.46a6.79,6.79,0,0,1,4-8.72l29-10.74a6.79,6.79,0,0,1,8.72,4l13.11,35.46a6.79,6.79,0,0,1-4,8.72l-29,10.74A6.77,6.77,0,0,1,214.71,466.42Z" transform="translate(7.79 -200.56)"/><path class="cls-5" d="M230.65,413.43l13.11,35.46-29,10.74L201.6,424.16l29-10.74m0-13.58a13.57,13.57,0,0,0-4.71.84l-29,10.74a13.58,13.58,0,0,0-8,17.44L202,464.33a13.56,13.56,0,0,0,17.44,8l29-10.74a13.58,13.58,0,0,0,8-17.44l-13.11-35.46a13.58,13.58,0,0,0-12.73-8.87Z" transform="translate(7.79 -200.56)"/><path class="cls-6" d="M26,547a6.79,6.79,0,0,1-6.37-4.44L-.58,488a6.79,6.79,0,0,1,4-8.72l182.49-67.45a6.78,6.78,0,0,1,8.72,4l20.17,54.58a6.79,6.79,0,0,1-4,8.72L28.31,546.62A6.77,6.77,0,0,1,26,547Z" transform="translate(7.79 -200.56)"/><path class="cls-5" d="M188.28,418.22l20.17,54.58L26,540.26,5.79,485.68l182.49-67.45m0-13.58a13.57,13.57,0,0,0-4.71.84L1.08,472.94a13.58,13.58,0,0,0-8,17.44L13.23,545a13.58,13.58,0,0,0,17.44,8l182.49-67.45a13.58,13.58,0,0,0,8-17.44L201,413.52a13.58,13.58,0,0,0-12.73-8.87Z" transform="translate(7.79 -200.56)"/><path class="cls-7" d="M177.89,490.89a6.79,6.79,0,0,1-6.37-4.43l-20.17-54.58a6.79,6.79,0,0,1,4-8.72l30.56-11.29a6.78,6.78,0,0,1,8.72,4l20.17,54.58a6.79,6.79,0,0,1-4,8.72l-30.56,11.29A6.78,6.78,0,0,1,177.89,490.89Z" transform="translate(7.79 -200.56)"/><path class="cls-5" d="M188.28,418.22l20.17,54.58L177.89,484.1l-20.17-54.58,30.56-11.29m0-13.58a13.55,13.55,0,0,0-4.71.85L153,416.78a13.58,13.58,0,0,0-8,17.44l20.17,54.58a13.56,13.56,0,0,0,17.44,8l30.56-11.29a13.58,13.58,0,0,0,8-17.44L201,413.52a13.58,13.58,0,0,0-12.74-8.87Z" transform="translate(7.79 -200.56)"/><path class="cls-7" d="M26,547a6.79,6.79,0,0,1-6.37-4.43L-.58,488a6.79,6.79,0,0,1,4-8.72L34,468a6.79,6.79,0,0,1,8.72,4l20.17,54.58a6.79,6.79,0,0,1-4,8.72L28.31,546.62A6.78,6.78,0,0,1,26,547Z" transform="translate(7.79 -200.56)"/><path class="cls-5" d="M36.34,474.38,56.52,529,26,540.26,5.79,485.68l30.56-11.29m0-13.58a13.57,13.57,0,0,0-4.71.84L1.08,472.94a13.58,13.58,0,0,0-8,17.44L13.23,545a13.56,13.56,0,0,0,17.44,8L61.23,541.7a13.58,13.58,0,0,0,8-17.44L49.08,469.67a13.58,13.58,0,0,0-12.73-8.87Z" transform="translate(7.79 -200.56)"/><path class="cls-8" d="M350,517.37a128,128,0,1,1,44.32-8,127.57,127.57,0,0,1-44.32,8Zm0-217a89.13,89.13,0,1,0,83.6,58.24A88.81,88.81,0,0,0,350,300.32Z" transform="translate(7.79 -200.56)"/><path class="cls-5" d="M350,268.34a121.17,121.17,0,1,1-42,7.54,121.14,121.14,0,0,1,42-7.54m0,217a95.92,95.92,0,1,0-90-62.68,95.72,95.72,0,0,0,90,62.68m0-230.62a134.71,134.71,0,1,0,76.15,23.61A134.22,134.22,0,0,0,350,254.76Zm0,217a82.35,82.35,0,0,1,0-164.7h0a82.35,82.35,0,0,1,0,164.7Z" transform="translate(7.79 -200.56)"/></svg>