<svg id="Layer_1" data-name="Layer 1" xmlns="http://www.w3.org/2000/svg" viewBox="0 0 650 371.59"><defs><style>.cls-1{fill:#5a526a;}.cls-2{fill:#f7fbff;}.cls-3{fill:none;stroke:#5a526a;stroke-linecap:round;stroke-linejoin:round;stroke-width:15.37px;}</style></defs><title>insert</title><rect class="cls-1" width="650" height="199.03" rx="46" ry="46"/><rect class="cls-1" x="38.64" y="28.98" width="572.72" height="141.06" rx="36.35" ry="36.35"/><path class="cls-2" d="M113.46,581.8a43.68,43.68,0,0,1-42.52-53.67l49.95-212.48a7.69,7.69,0,0,1,7.48-5.93H490.26a7.69,7.69,0,0,1,7.41,5.66l57.79,211.21a43.68,43.68,0,0,1-42.13,55.21Z" transform="translate(19 -217.89)"/><path class="cls-1" d="M490.26,317.4,548,528.62a36,36,0,0,1-34.72,45.49H113.46a36,36,0,0,1-35-44.23L128.37,317.4H490.26m0-15.37H128.37a15.37,15.37,0,0,0-15,11.86L63.46,526.36a51.37,51.37,0,0,0,50,63.12H513.33a51.37,51.37,0,0,0,49.54-64.92L505.08,313.35A15.37,15.37,0,0,0,490.26,302Z" transform="translate(19 -217.89)"/><line class="cls-3" x1="188.44" y1="142.23" x2="466.53" y2="142.23"/><line class="cls-3" x1="188.44" y1="185.08" x2="466.53" y2="185.08"/><line class="cls-3" x1="185.96" y1="227.87" x2="464.04" y2="227.87"/><line class="cls-3" x1="193.35" y1="270.65" x2="471.44" y2="270.65"/><line class="cls-3" x1="184.83" y1="310.95" x2="361.47" y2="310.95"/></svg>