<svg id="Layer_1" data-name="Layer 1" xmlns="http://www.w3.org/2000/svg" viewBox="0 0 643.95 367.06"><defs><style>.cls-1{fill:#f9fcff;}.cls-2{fill:#5a526a;}.cls-3{fill:#fdd4a7;}</style></defs><title>offer</title><g id="idea_bulb" data-name="idea bulb"><rect class="cls-1" x="514.34" y="311.53" width="53.77" height="37.73" rx="16.11" ry="16.11"/><path class="cls-2" d="M535.47,552.27a7.28,7.28,0,0,1,7.26,7.26V565a7.28,7.28,0,0,1-7.26,7.26H513.92a7.28,7.28,0,0,1-7.26-7.26v-5.51a7.28,7.28,0,0,1,7.26-7.26h21.55m0-17.7H513.92a25,25,0,0,0-25,25V565a25,25,0,0,0,25,25h21.55a25,25,0,0,0,25-25v-5.51a25,25,0,0,0-25-25Z" transform="translate(16.53 -231.89)"/><path class="cls-3" d="M541.29,474.75H508.1l-5,0c-6.51,0-14.61,0-19.9-6.68-4.27-5.4-5.08-13-5.08-25.28,0-10.77-8.21-27.25-22-44.11-1.57-1.69-3.16-3.53-4.82-5.62l0-.05a9,9,0,0,1-.92-1.18,92.9,92.9,0,0,1-19.51-57.25,93.88,93.88,0,0,1,187.75,0A92.91,92.91,0,0,1,599,391.92a8.81,8.81,0,0,1-.84,1.07c-1.53,1.92-3.13,3.78-4.77,5.54-13.84,16.93-22.1,33.47-22.1,44.28,0,12.23-.81,19.88-5.08,25.28-5.27,6.65-13.33,6.68-19.82,6.68Z" transform="translate(16.53 -231.89)"/><path class="cls-2" d="M524.7,249.58A85,85,0,0,1,591.62,387h0l-.2.22q-2.24,2.83-4.7,5.47c-8.31,10.13-24.29,32-24.29,50.11,0,22-3.08,23.11-16.13,23.11l-5,0H508.1l-5,0c-13.05,0-16.13-1.16-16.13-23.11,0-18.05-15.8-39.74-24.15-49.94-1.67-1.77-3.24-3.63-4.75-5.53l-.3-.32h0A85,85,0,0,1,524.7,249.58m67,137.43h0m-67-155.12A102.83,102.83,0,0,0,422,334.6,101.65,101.65,0,0,0,443.14,397a17.66,17.66,0,0,0,1.43,1.82c1.67,2.09,3.27,4,4.87,5.68,12.22,15,19.79,29.67,19.79,38.3,0,13.89,1.14,23.38,7,30.77,7.94,10,19.77,10,26.83,10h43.26c7.07,0,18.89,0,26.83-10,5.85-7.39,7-16.88,7-30.77,0-8.67,7.63-23.37,19.93-38.47,1.66-1.8,3.29-3.69,4.84-5.63a17.78,17.78,0,0,0,1.28-1.64,101.66,101.66,0,0,0,21.21-62.48A102.83,102.83,0,0,0,524.7,231.89Z" transform="translate(16.53 -231.89)"/><path class="cls-1" d="M492,508a11.75,11.75,0,0,1-11.73-11.73v-6.13c0-5.55,4.23-11.73,10.29-11.73h65.3c8.65,0,13.18,5.9,13.18,11.73v6.13A11.75,11.75,0,0,1,557.35,508Z" transform="translate(16.53 -231.89)"/><path class="cls-2" d="M555.9,487.23c3,0,4.33,1.3,4.33,2.89v6.13a2.89,2.89,0,0,1-2.89,2.89H492a2.89,2.89,0,0,1-2.89-2.89v-6.13a3.92,3.92,0,0,1,1.44-2.89h65.3m0-17.7H490.6c-6.22,0-11.89,3.22-15.58,8.85a21.39,21.39,0,0,0-3.56,11.74v6.13A20.61,20.61,0,0,0,492,516.83h65.3a20.61,20.61,0,0,0,20.58-20.58v-6.13c0-10-7.72-20.58-22-20.58Z" transform="translate(16.53 -231.89)"/><rect class="cls-1" x="500.25" y="285.35" width="81.67" height="29.6" rx="11.59" ry="11.59"/><path class="cls-2" d="M553.81,526.08a2.75,2.75,0,0,1,2.74,2.74v6.43a2.75,2.75,0,0,1-2.74,2.74H495.31a2.75,2.75,0,0,1-2.74-2.74v-6.43a2.75,2.75,0,0,1,2.74-2.74h58.49m0-17.7H495.31a20.46,20.46,0,0,0-20.43,20.43v6.43a20.46,20.46,0,0,0,20.43,20.43h58.49a20.46,20.46,0,0,0,20.43-20.43v-6.43a20.46,20.46,0,0,0-20.43-20.43Z" transform="translate(16.53 -231.89)"/></g><path d="M71.9,440.22v16.85a94.49,94.49,0,0,0,35.32-6.87,297.57,297.57,0,0,0,30.62-14.56,106.79,106.79,0,0,1,54.57-13.5c21.16.44,42.33,0,63.5.15,19.56.18,32.33,18,25.8,35.71-3.87,10.47-13.35,17.1-25.12,17.15-22.67.1-45.33,0-68,0-4.88,0-9.07,1.23-10.69,6.37-1.93,6.1,2.46,11.33,9.46,11.37,14,.07,28,0,42,0,22.67,0,45.33-.15,68,0a97.46,97.46,0,0,0,45.25-10.57q23-11.56,46-23c14.49-7.2,30-2.62,36.87,10.81,6.94,13.61,1.34,29-13.35,36.4-28.41,14.25-56.88,28.39-85.28,42.66-21.53,10.83-44.73,13.92-68.35,14.24-31.49.42-63,.73-94.49-.11-12.51-.34-25-3.8-37.4-6-16.88-3-33.73-6.15-50.6-9.21-1.27-.23-2.59-.21-4.42-.34,0,5.22-.18,10.19.15,15.14.07,1,1.87,2.6,3.08,2.83,27.32,5.1,54.64,10.28,82.05,14.87,6.82,1.14,14,.39,21,.4,27.33,0,54.67.19,82,0,29.39-.23,57.31-6.24,83.57-20.27,25.83-13.79,52.43-26.15,78.48-39.54,15.53-8,23.73-21.2,23.89-38.7.16-17.3-7.73-30.48-22.81-38.85-13.28-7.37-27.1-7.41-40.74-.71-15.83,7.78-31.58,15.72-47.33,23.67A77.69,77.69,0,0,1,293.62,475c2.12-5.67,4.83-11.06,6.15-16.76,6.26-26.93-13.86-53-41.43-53.41-25.49-.38-51-.13-76.5,0-18.29.08-34.76,6.4-50.88,14.5a409.52,409.52,0,0,1-38.28,16.79C86.26,438.58,79,438.89,71.9,440.22Z" transform="translate(16.53 -231.89)"/><path d="M-16.48,581.12v17.51c16.05,0,31.89.85,47.59-.26,13.39-.95,22.64-12.62,22.66-26.15q.11-70.22,0-140.43c0-15.85-11.26-26.9-27.17-27-13-.09-26,0-39,0-1.29,0-2.58.18-4.14.3v17.15h5c12.33,0,24.65,0,37,.08,7.35.05,10.61,3.09,10.62,10.19q.08,69.22,0,138.43c0,7.27-3.1,10.18-10.47,10.2C11.82,581.15-2,581.12-16.48,581.12Z" transform="translate(16.53 -231.89)"/></svg>