<?xml version="1.0" encoding="utf-8"?>
<!-- Generator: Adobe Illustrator 21.0.2, SVG Export Plug-In . SVG Version: 6.00 Build 0)  -->
<svg version="1.1" id="Layer_1" xmlns="http://www.w3.org/2000/svg" xmlns:xlink="http://www.w3.org/1999/xlink" x="0px" y="0px"
	 viewBox="0 0 725 200" style="enable-background:new 0 0 725 200;" xml:space="preserve">
<style type="text/css">
	.st0{fill:#F7B768;}
	.st1{fill:#F1A43F;}
	.st2{fill:#EDECED;}
	.st3{fill:#BABCBE;}
	.st4{fill:#B1B9B9;}
	.st5{fill:#FCCE8A;}
	.st6{fill:none;}
	.st7{fill:#3535C9;}
	.st8{font-family:'GradoGradooNF';}
	.st9{font-size:173px;}
</style>
<g>
	<path class="st0" d="M37.5,138c0,0-17.9,1.6-17.9,3.7c0,1.1,0.7,11,0.3,20.7c0,0,11.5,21.5,13.8,29.7L37.5,138z"/>
	<polygon class="st1" points="51.9,154.4 86.8,9.5 92,9.5 55.9,156.2 	"/>
	<path class="st2" d="M82.6,26.8l-2.3-2.2c0,0-47.8,37.7-44.8,101.6c0,0,9.9-43.1,14.3-54.4C56.2,55.7,82.6,26.8,82.6,26.8z"/>
	<path class="st3" d="M82.6,26.8c0,0-51.5,60.5-22.6,93.6l-0.5,2.2c0,0-12.2-15.1-24,3.7C35.5,126.3,44.3,51.1,82.6,26.8z"/>
	<path class="st4" d="M75.6,76.2c0,0,16.1-21.9,18.9-21.9l-8.8,85.5l-23.9-8L75.6,76.2z"/>
	<path class="st5" d="M37.5,138c0,0-2.2,29.4-3.8,54.1l47.6-5.1l15.9-28.3l-17-1.3C80.1,157.5,54.8,147,37.5,138z"/>
</g>
<rect x="123" y="54.3" class="st6" width="839" height="406.3"/>
<text transform="matrix(1 0 0 1 123 166.4091)" class="st7 st8 st9">DREAMY</text>
</svg>
